<svg width="1512" height="518" viewBox="0 0 1512 518" fill="none" xmlns="http://www.w3.org/2000/svg">
<g clip-path="url(#clip0_3_254)">
<rect width="1512" height="518" fill="url(#paint0_radial_3_254)"/>
<g filter="url(#filter0_f_3_254)">
<ellipse cx="266.621" cy="-13.8733" rx="142.749" ry="142.749" transform="rotate(-90 266.621 -13.8733)" fill="#0000FD" fill-opacity="0.37"/>
</g>
<mask id="mask0_3_254" style="mask-type:alpha" maskUnits="userSpaceOnUse" x="-311" y="-359" width="1157" height="691">
<rect x="-311" y="-359" width="1156.45" height="690.254" fill="url(#paint1_radial_3_254)"/>
</mask>
<g mask="url(#mask0_3_254)">
<rect x="-67.0621" y="-62.0583" width="95.1659" height="95.1659" stroke="white" stroke-width="1.20463"/>
<rect x="28.1038" y="-62.0583" width="95.1659" height="95.1659" stroke="white" stroke-width="1.20463"/>
<rect x="123.27" y="-62.0583" width="95.1659" height="95.1659" stroke="white" stroke-width="1.20463"/>
<rect x="218.435" y="-62.0583" width="95.1659" height="95.1659" stroke="white" stroke-width="1.20463"/>
<rect x="313.601" y="-62.0583" width="95.1659" height="95.1659" stroke="white" stroke-width="1.20463"/>
<rect x="408.767" y="-62.0583" width="95.1659" height="95.1659" stroke="white" stroke-width="1.20463"/>
<rect x="503.933" y="-62.0583" width="95.1659" height="95.1659" stroke="white" stroke-width="1.20463"/>
<rect x="599.099" y="-62.0583" width="95.1659" height="95.1659" stroke="white" stroke-width="1.20463"/>
<rect x="-67.0621" y="33.1077" width="95.1659" height="95.1659" stroke="white" stroke-width="1.20463"/>
<rect x="28.1038" y="33.1077" width="95.1659" height="95.1659" stroke="white" stroke-width="1.20463"/>
<rect x="123.27" y="33.1077" width="95.1659" height="95.1659" fill="white" fill-opacity="0.25" stroke="white" stroke-width="1.20463"/>
<rect x="218.435" y="33.1077" width="95.1659" height="95.1659" stroke="white" stroke-width="1.20463"/>
<rect x="313.601" y="33.1077" width="95.1659" height="95.1659" stroke="white" stroke-width="1.20463"/>
<rect x="408.767" y="33.1077" width="95.1659" height="95.1659" stroke="white" stroke-width="1.20463"/>
<rect x="503.933" y="33.1077" width="95.1659" height="95.1659" stroke="white" stroke-width="1.20463"/>
<rect x="599.099" y="33.1077" width="95.1659" height="95.1659" stroke="white" stroke-width="1.20463"/>
<rect x="-67.0621" y="128.273" width="95.1659" height="95.1659" stroke="white" stroke-width="1.20463"/>
<rect x="28.1038" y="128.273" width="95.1659" height="95.1659" stroke="white" stroke-width="1.20463"/>
<rect x="123.27" y="128.273" width="95.1659" height="95.1659" stroke="white" stroke-width="1.20463"/>
<rect x="218.435" y="128.273" width="95.1659" height="95.1659" stroke="white" stroke-width="1.20463"/>
<rect x="313.601" y="128.273" width="95.1659" height="95.1659" stroke="white" stroke-width="1.20463"/>
<rect x="408.767" y="128.273" width="95.1659" height="95.1659" stroke="white" stroke-width="1.20463"/>
<rect x="503.933" y="128.273" width="95.1659" height="95.1659" stroke="white" stroke-width="1.20463"/>
<rect x="599.099" y="128.273" width="95.1659" height="95.1659" stroke="white" stroke-width="1.20463"/>
<rect x="-67.0621" y="223.439" width="95.1659" height="95.1659" stroke="white" stroke-width="1.20463"/>
<rect x="28.1038" y="223.439" width="95.1659" height="95.1659" stroke="white" stroke-width="1.20463"/>
<rect x="123.27" y="223.439" width="95.1659" height="95.1659" stroke="white" stroke-width="1.20463"/>
<rect x="218.435" y="223.439" width="95.1659" height="95.1659" stroke="white" stroke-width="1.20463"/>
<rect x="313.601" y="223.439" width="95.1659" height="95.1659" stroke="white" stroke-width="1.20463"/>
<rect x="408.767" y="223.439" width="95.1659" height="95.1659" stroke="white" stroke-width="1.20463"/>
<rect x="503.933" y="223.439" width="95.1659" height="95.1659" stroke="white" stroke-width="1.20463"/>
<rect x="599.099" y="223.439" width="95.1659" height="95.1659" stroke="white" stroke-width="1.20463"/>
</g>
<g filter="url(#filter1_f_3_254)">
<ellipse cx="1437.62" cy="406.127" rx="142.749" ry="142.749" transform="rotate(-90 1437.62 406.127)" fill="#01FFFE" fill-opacity="0.48"/>
</g>
<mask id="mask1_3_254" style="mask-type:alpha" maskUnits="userSpaceOnUse" x="860" y="61" width="1157" height="691">
<rect x="860" y="61" width="1156.45" height="690.254" fill="url(#paint2_radial_3_254)"/>
</mask>
<g mask="url(#mask1_3_254)">
<rect x="1008.77" y="72.4441" width="95.1659" height="95.1659" stroke="white" stroke-width="1.20463"/>
<rect x="1103.94" y="72.4441" width="95.1659" height="95.1659" stroke="white" stroke-width="1.20463"/>
<rect x="1199.1" y="72.4441" width="95.1659" height="95.1659" stroke="white" stroke-width="1.20463"/>
<rect x="1294.27" y="72.4441" width="95.1659" height="95.1659" stroke="white" stroke-width="1.20463"/>
<rect x="1389.44" y="72.4441" width="95.1659" height="95.1659" stroke="white" stroke-width="1.20463"/>
<rect x="1484.6" y="72.4441" width="95.1659" height="95.1659" stroke="white" stroke-width="1.20463"/>
<rect x="1008.77" y="167.61" width="95.1659" height="95.1659" stroke="white" stroke-width="1.20463"/>
<rect x="1103.94" y="167.61" width="95.1659" height="95.1659" stroke="white" stroke-width="1.20463"/>
<rect x="1199.1" y="167.61" width="95.1659" height="95.1659" stroke="white" stroke-width="1.20463"/>
<rect x="1294.27" y="167.61" width="95.1659" height="95.1659" stroke="white" stroke-width="1.20463"/>
<rect x="1389.44" y="167.61" width="95.1659" height="95.1659" stroke="white" stroke-width="1.20463"/>
<rect x="1484.6" y="167.61" width="95.1659" height="95.1659" stroke="white" stroke-width="1.20463"/>
<rect x="1008.77" y="262.776" width="95.1659" height="95.1659" stroke="white" stroke-width="1.20463"/>
<rect x="1103.94" y="262.776" width="95.1659" height="95.1659" stroke="white" stroke-width="1.20463"/>
<rect x="1199.1" y="262.776" width="95.1659" height="95.1659" stroke="white" stroke-width="1.20463"/>
<rect x="1294.27" y="262.776" width="95.1659" height="95.1659" stroke="white" stroke-width="1.20463"/>
<rect x="1389.44" y="262.776" width="95.1659" height="95.1659" fill="white" fill-opacity="0.25" stroke="white" stroke-width="1.20463"/>
<rect x="1484.6" y="262.776" width="95.1659" height="95.1659" stroke="white" stroke-width="1.20463"/>
<rect x="1008.77" y="357.942" width="95.1659" height="95.1659" stroke="white" stroke-width="1.20463"/>
<rect x="1103.94" y="357.942" width="95.1659" height="95.1659" stroke="white" stroke-width="1.20463"/>
<rect x="1199.1" y="357.942" width="95.1659" height="95.1659" stroke="white" stroke-width="1.20463"/>
<rect x="1294.27" y="357.942" width="95.1659" height="95.1659" stroke="white" stroke-width="1.20463"/>
<rect x="1389.44" y="357.942" width="95.1659" height="95.1659" stroke="white" stroke-width="1.20463"/>
<rect x="1484.6" y="357.942" width="95.1659" height="95.1659" stroke="white" stroke-width="1.20463"/>
<rect x="1008.77" y="453.108" width="95.1659" height="95.1659" stroke="white" stroke-width="1.20463"/>
<rect x="1103.94" y="453.108" width="95.1659" height="95.1659" stroke="white" stroke-width="1.20463"/>
<rect x="1199.1" y="453.108" width="95.1659" height="95.1659" stroke="white" stroke-width="1.20463"/>
<rect x="1294.27" y="453.108" width="95.1659" height="95.1659" fill="white" fill-opacity="0.25" stroke="white" stroke-width="1.20463"/>
<rect x="1389.44" y="453.108" width="95.1659" height="95.1659" stroke="white" stroke-width="1.20463"/>
<rect x="1484.6" y="453.108" width="95.1659" height="95.1659" stroke="white" stroke-width="1.20463"/>
</g>
</g>
<defs>
<filter id="filter0_f_3_254" x="-117.054" y="-397.548" width="767.35" height="767.35" filterUnits="userSpaceOnUse" color-interpolation-filters="sRGB">
<feFlood flood-opacity="0" result="BackgroundImageFix"/>
<feBlend mode="normal" in="SourceGraphic" in2="BackgroundImageFix" result="shape"/>
<feGaussianBlur stdDeviation="120.463" result="effect1_foregroundBlur_3_254"/>
</filter>
<filter id="filter1_f_3_254" x="1053.95" y="22.4517" width="767.35" height="767.35" filterUnits="userSpaceOnUse" color-interpolation-filters="sRGB">
<feFlood flood-opacity="0" result="BackgroundImageFix"/>
<feBlend mode="normal" in="SourceGraphic" in2="BackgroundImageFix" result="shape"/>
<feGaussianBlur stdDeviation="120.463" result="effect1_foregroundBlur_3_254"/>
</filter>
<radialGradient id="paint0_radial_3_254" cx="0" cy="0" r="1" gradientUnits="userSpaceOnUse" gradientTransform="translate(756 259) rotate(90) scale(259 756)">
<stop stop-color="#05071A"/>
<stop offset="1" stop-color="#01020C"/>
</radialGradient>
<radialGradient id="paint1_radial_3_254" cx="0" cy="0" r="1" gradientUnits="userSpaceOnUse" gradientTransform="translate(267.223 -13.8731) rotate(90) scale(425.464 712.819)">
<stop stop-color="#D9D9D9" stop-opacity="0.2"/>
<stop offset="0.802083" stop-color="#D9D9D9" stop-opacity="0"/>
</radialGradient>
<radialGradient id="paint2_radial_3_254" cx="0" cy="0" r="1" gradientUnits="userSpaceOnUse" gradientTransform="translate(1438.22 406.127) rotate(90) scale(425.464 712.819)">
<stop stop-color="#D9D9D9" stop-opacity="0.2"/>
<stop offset="0.802083" stop-color="#D9D9D9" stop-opacity="0"/>
</radialGradient>
<clipPath id="clip0_3_254">
<rect width="1512" height="518" fill="white"/>
</clipPath>
</defs>
</svg>
