<svg xmlns="http://www.w3.org/2000/svg" xmlns:xlink="http://www.w3.org/1999/xlink" width="40" zoomAndPan="magnify" viewBox="0 0 30 30.000001" height="40" preserveAspectRatio="xMidYMid meet" version="1.0"><defs><clipPath id="6f67cf6ce1"><path d="M 0.484375 0 L 29.515625 0 L 29.515625 29.03125 L 0.484375 29.03125 Z M 0.484375 0 " clip-rule="nonzero"/></clipPath><clipPath id="1ab50b595e"><path d="M 15 0 C 6.984375 0 0.484375 6.5 0.484375 14.515625 C 0.484375 22.53125 6.984375 29.03125 15 29.03125 C 23.015625 29.03125 29.515625 22.53125 29.515625 14.515625 C 29.515625 6.5 23.015625 0 15 0 " clip-rule="nonzero"/></clipPath><clipPath id="a8f5379596"><path d="M 8.9375 5.617188 L 21.277344 5.617188 L 21.277344 23.765625 L 8.9375 23.765625 Z M 8.9375 5.617188 " clip-rule="nonzero"/></clipPath></defs><g clip-path="url(#6f67cf6ce1)"><g clip-path="url(#1ab50b595e)"><path fill="#161528" d="M 0.484375 0 L 29.515625 0 L 29.515625 29.03125 L 0.484375 29.03125 Z M 0.484375 0 " fill-opacity="1" fill-rule="nonzero"/></g></g><g clip-path="url(#a8f5379596)"><path fill="#ffffff" d="M 8.9375 5.636719 L 8.9375 9.617188 L 12.984375 9.617188 L 12.984375 23.753906 L 17.234375 23.753906 L 17.234375 9.617188 L 21.277344 9.617188 L 21.277344 5.636719 C 21.277344 5.636719 8.925781 5.625 8.9375 5.636719 Z M 8.9375 5.636719 " fill-opacity="1" fill-rule="nonzero"/></g></svg>