<svg width="102" height="101" viewBox="0 0 102 101" fill="none" xmlns="http://www.w3.org/2000/svg">
<rect x="0.977905" width="100.044" height="100.044" rx="50.0221" fill="url(#paint0_linear_3_459)"/>
<path d="M34.9674 44.2856C36.1289 39.6083 39.8376 35.9919 44.5419 34.9495L45.3255 34.7759C48.8689 33.9907 52.5411 33.9907 56.0844 34.7759L56.868 34.9495C61.5723 35.9919 65.2811 39.6083 66.4425 44.2856C67.3297 47.8587 67.3297 51.5946 66.4425 55.1677C65.2811 59.845 61.5723 63.4614 56.868 64.5038L56.0844 64.6774C52.541 65.4626 48.8689 65.4626 45.3255 64.6774L44.5419 64.5038C39.8376 63.4614 36.1289 59.845 34.9674 55.1677C34.0802 51.5946 34.0802 47.8587 34.9674 44.2856Z" fill="white" fill-opacity="0.15"/>
<path d="M35.5151 44.0292H65.8948M34.9674 55.1677C34.0802 51.5946 34.0802 47.8587 34.9674 44.2856C36.1289 39.6083 39.8376 35.9919 44.5419 34.9495L45.3255 34.7759C48.8689 33.9907 52.5411 33.9907 56.0844 34.7759L56.868 34.9495C61.5723 35.9919 65.2811 39.6083 66.4425 44.2856C67.3297 47.8587 67.3297 51.5946 66.4425 55.1677C65.2811 59.845 61.5723 63.4614 56.868 64.5038L56.0844 64.6774C52.5411 65.4626 48.8689 65.4626 45.3255 64.6774L44.5419 64.5038C39.8376 63.4614 36.1289 59.845 34.9674 55.1677Z" stroke="white" stroke-width="2.58994"/>
<path d="M42.0717 49.7271L48.9782 49.7271" stroke="white" stroke-width="2.58994" stroke-linecap="round"/>
<defs>
<linearGradient id="paint0_linear_3_459" x1="14.1166" y1="13.3738" x2="88.2307" y2="92.5137" gradientUnits="userSpaceOnUse">
<stop stop-color="#69E2D8"/>
<stop offset="1" stop-color="#5EA6DA"/>
</linearGradient>
</defs>
</svg>
