<svg width="100" height="100" viewBox="0 0 100 100" fill="none" xmlns="http://www.w3.org/2000/svg">
<path d="M100 50C100 83.3334 83.3333 100 50 100C16.6667 100 0 83.3334 0 50C0 16.6667 16.6667 0 50 0C83.3333 0 100 16.6667 100 50Z" fill="url(#paint0_linear_3_467)"/>
<path fill-rule="evenodd" clip-rule="evenodd" d="M44.9394 35.4369C39.6269 36.638 35.4585 40.7207 34.1796 45.9756C33.4802 48.8489 33.4866 51.8724 34.1859 54.7458C35.4849 60.0828 39.3057 64.5245 44.4313 66.5941L44.6548 66.6843C46.8728 67.5799 49.4137 66.5013 50.3238 64.3037C50.5743 63.6989 51.1708 63.2976 51.8298 63.2976H53.8366C59.2947 63.2976 64.0428 59.5889 65.324 54.3249C65.9602 51.7109 65.9602 48.9842 65.324 46.3702L65.156 45.6799C63.9211 40.6062 59.8963 36.6641 54.7669 35.5045L54.0463 35.3416C51.1879 34.6954 48.2196 34.6954 45.3611 35.3416L44.9394 35.4369ZM43.4832 44.4403C42.796 44.4403 42.239 44.9929 42.239 45.6747C42.239 46.3564 42.796 46.909 43.4832 46.909H54.8876C55.5747 46.909 56.1317 46.3564 56.1317 45.6747C56.1317 44.9929 55.5747 44.4403 54.8876 44.4403H43.4832ZM45.5567 50.612C44.8696 50.612 44.3126 51.1647 44.3126 51.8464C44.3126 52.5281 44.8696 53.0807 45.5567 53.0807H52.814C53.5011 53.0807 54.0581 52.5281 54.0581 51.8464C54.0581 51.1647 53.5011 50.612 52.814 50.612H45.5567Z" fill="url(#paint1_linear_3_467)"/>
<defs>
<linearGradient id="paint0_linear_3_467" x1="13.1329" y1="13.3679" x2="87.2144" y2="92.4729" gradientUnits="userSpaceOnUse">
<stop stop-color="#69E2D8"/>
<stop offset="1" stop-color="#5EA6DA"/>
</linearGradient>
<linearGradient id="paint1_linear_3_467" x1="49.7297" y1="40.2141" x2="49.7297" y2="66.9998" gradientUnits="userSpaceOnUse">
<stop stop-color="white"/>
<stop offset="1" stop-color="white" stop-opacity="0.42"/>
</linearGradient>
</defs>
</svg>
