<svg width="46" height="46" viewBox="0 0 46 46" fill="none" xmlns="http://www.w3.org/2000/svg">
<path d="M6.31018 13.702V32.3621C6.31018 33.3519 6.70338 34.3012 7.40327 35.0011C8.10316 35.701 9.05241 36.0942 10.0422 36.0942H36.1664C37.1562 36.0942 38.1055 35.701 38.8054 35.0011C39.5052 34.3012 39.8984 33.3519 39.8984 32.3621V17.434C39.8984 16.4442 39.5052 15.495 38.8054 14.7951C38.1055 14.0952 37.1562 13.702 36.1664 13.702H24.9703L21.2383 9.96997H10.0422C9.05241 9.96997 8.10316 10.3632 7.40327 11.0631C6.70338 11.7629 6.31018 12.7122 6.31018 13.702Z" fill="url(#paint0_linear_3_512)" fill-opacity="0.4"/>
<defs>
<linearGradient id="paint0_linear_3_512" x1="23.1043" y1="9.96997" x2="23.1043" y2="36.0942" gradientUnits="userSpaceOnUse">
<stop stop-color="#60B0D9"/>
<stop offset="1" stop-color="#31509C"/>
</linearGradient>
</defs>
</svg>
